PathFileType	4	(X/Y/Z)	C:\Users\Basilio\Documents\Thesis Gigler\squatting_fais\c3dfiles\047\SLS_pre_back2\markers_experimental.trc
DataRate	CameraRate	NumFrames	NumMarkers	Units	OrigDataRate	OrigDataStartFrame	OrigNumFrames
200.000000	200.000000	4	62	mm	200.000000	0	1295
Frame#	Time	FHD			LBHD			RBHD			C7			T10			CLAV			LSHO			LUUPA			LMUPA			LDUPA			LLEP			LMEP			LRAD			LUL			LRFIN			RSHO			RUPA1			RMUPA			RDUPA			RLEP			RMEP			RUL			RUFIN			LASI			RASI			USACR			LSACR			RSACR			LTHI1			LTHI2			LTHI3			LTHI4			LLFC			LMFC			LTIB1			LTIB2			LTIB3			LTIB4			LLMAL			LMMAL			LMT1			LMT2			LMT5			RTHI			RTHI2			RTHI3			RTHI4			RLFC			RMFC			RTIB1			RTIB2			RTIB3			RTIB4			RLMAL			RHEE			RMT1			RMT2			RMT5			RMMAL			RRAD			*60			*61			
		X1	Y1	Z1	X2	Y2	Z2	X3	Y3	Z3	X4	Y4	Z4	X5	Y5	Z5	X6	Y6	Z6	X7	Y7	Z7	X8	Y8	Z8	X9	Y9	Z9	X10	Y10	Z10	X11	Y11	Z11	X12	Y12	Z12	X13	Y13	Z13	X14	Y14	Z14	X15	Y15	Z15	X16	Y16	Z16	X17	Y17	Z17	X18	Y18	Z18	X19	Y19	Z19	X20	Y20	Z20	X21	Y21	Z21	X22	Y22	Z22	X23	Y23	Z23	X24	Y24	Z24	X25	Y25	Z25	X26	Y26	Z26	X27	Y27	Z27	X28	Y28	Z28	X29	Y29	Z29	X30	Y30	Z30	X31	Y31	Z31	X32	Y32	Z32	X33	Y33	Z33	X34	Y34	Z34	X35	Y35	Z35	X36	Y36	Z36	X37	Y37	Z37	X38	Y38	Z38	X39	Y39	Z39	X40	Y40	Z40	X41	Y41	Z41	X42	Y42	Z42	X43	Y43	Z43	X44	Y44	Z44	X45	Y45	Z45	X46	Y46	Z46	X47	Y47	Z47	X48	Y48	Z48	X49	Y49	Z49	X50	Y50	Z50	X51	Y51	Z51	X52	Y52	Z52	X53	Y53	Z53	X54	Y54	Z54	X55	Y55	Z55	X56	Y56	Z56	X57	Y57	Z57	X58	Y58	Z58	X59	Y59	Z59	X60	Y60	Z60	X61	Y61	Z61	X62	Y62	Z62	

1	0	-170.4294586181641	1743.6201171875	-1096.517333984375	-346.1141052246094	1699.259643554688	-1122.743774414063	-324.7388916015626	1709.179443359375	-975.6912231445315	-359.5439147949219	1522.482666015625	-1048.989990234375	-373.8894653320313	1211.775512695313	-1026.100463867188	-206.3662261962891	1471.205200195313	-1076.403076171875	-284.2303161621094	1483.157836914063	-1231.150146484375	-216.2896118164063	1326.526245117188	-1323.723510742188	-172.8394317626953	1351.657348632813	-1322.184326171875	-154.9168090820313	1295.05517578125	-1331.948852539063	-82.70635223388673	1280.277465820313	-1335.2265625	-98.87296295166018	1233.528198242188	-1259.11669921875	80.68261718750001	1394.887573242188	-1174.472534179688	118.8118515014649	1328.648315429688	-1165.576538085938	169.8689880371094	1409.160278320313	-1163.04150390625	-242.8726654052735	1503.19189453125	-913.2234497070315	-139.4215087890625	1368.645874023438	-815.2359619140627	-101.7875289916992	1391.203125	-835.8335571289065	-75.83489227294923	1339.887084960938	-818.5836181640627	-2.213707923889161	1329.863159179688	-835.878356933594	-29.02379226684571	1259.849975585938	-884.7427978515627	163.0296630859375	1354.75341796875	-1040.406982421875	134.4293365478516	1432.321655273438	-1083.509155273438	-204.7242279052735	983.7659912109377	-1120.0673828125	-192.2170410156251	1004.685852050781	-890.6860351562502	-379.1386413574219	1078.778564453125	-1008.022155761719	-386.8057556152345	1044.740356445313	-1033.109252929688	-382.8300781250001	1050.129272460938	-974.955505371094	-290.6565246582032	828.202331542969	-1180.490600585938	-256.0045776367188	751.0490112304689	-1176.690551757813	-207.6024017333985	755.0306396484376	-1164.559326171875	-285.1861267089844	697.8427734375001	-1167.743041992188	-309.3708801269532	528.0725097656251	-1124.142822265625	-281.0852355957032	522.1744384765626	-1002.819580078125	-285.3870849609376	344.4159851074219	-1023.636047363281	-296.0305786132813	295.9729919433594	-1096.166625976563	-280.1037902832032	294.3721618652344	-1050.59716796875	-297.7404479980469	220.3173522949219	-1016.683532714844	-351.9378662109376	125.2450103759766	-1058.898315429688	-330.1780090332032	139.08251953125	-972.2717285156252	-208.1223602294922	64.34801483154298	-991.0767211914065	-208.9637451171876	60.83485031127931	-1036.281616210938	-259.0904235839844	50.84662246704103	-1079.941162109375	-247.2342987060547	828.0228271484377	-784.078063964844	-197.6453247070313	782.8286743164065	-779.348327636719	-168.9535522460938	788.4348754882815	-789.9594726562502	-207.9219818115235	699.4918823242189	-770.7400512695315	-183.3966674804688	569.2424316406251	-782.0830078125002	-175.3119049072266	537.1257324218751	-909.2163696289065	-268.3299560546876	478.9030761718751	-784.8375244140627	-366.0921325683594	518.8154296875001	-755.3026733398439	-350.8397827148438	474.8008117675782	-760.4855957031251	-393.3923339843751	443.5234985351564	-790.3479614257815	-557.9212036132814	461.5301818847657	-763.0863647460939	-586.4780883789064	504.6644897460939	-826.4260253906252	-595.1087646484376	296.7924499511719	-815.6209716796877	-597.0584716796876	296.8533325195313	-769.7520751953127	-633.9776611328126	350.1602783203126	-727.7823486328126	nan	nan	nan	nan	nan	nan	nan	nan	nan	nan	nan	nan	
2	0.005	-170.4443359375	1743.636596679688	-1096.654296875	-346.1600952148438	1699.26611328125	-1122.818603515625	-324.6281433105469	1709.14697265625	-975.7788696289065	-359.5227966308594	1522.530639648438	-1049.05859375	-373.8390808105469	1211.82275390625	-1026.172729492188	-206.3217926025391	1471.194458007813	-1076.444091796875	-284.1798706054688	1483.174072265625	-1231.20947265625	-216.2392578125001	1326.526977539063	-1323.818603515625	-172.7896575927735	1351.68603515625	-1322.271240234375	-154.9272918701172	1295.068481445313	-1332.039794921875	-82.61985015869142	1280.2763671875	-1335.327880859375	-98.85712432861331	1233.513305664063	-1259.123779296875	80.69846343994142	1394.9443359375	-1174.56494140625	118.232048034668	1329.703491210938	-1165.356079101563	169.9064178466797	1409.211791992188	-1163.125854492188	-242.6669158935547	1503.232421875	-913.410095214844	-139.3062896728516	1368.932983398438	-814.3362426757815	-101.7148132324219	1391.228515625	-835.9155273437502	-75.60850524902345	1340.20263671875	-818.0193481445315	-2.378931522369385	1329.446044921875	-835.6858520507815	-28.94126510620118	1259.869384765625	-884.862731933594	163.0438232421875	1354.80615234375	-1040.496948242188	134.4847259521485	1432.375366210938	-1083.607543945313	-204.7490539550782	983.8218994140627	-1120.212524414063	-192.1551818847657	1004.666137695313	-890.7714843750002	-379.0601806640626	1078.83544921875	-1007.978149414063	-386.8016052246095	1044.781372070313	-1033.10888671875	-382.7961120605469	1050.190185546875	-974.9283447265627	-290.7447204589844	828.2258911132815	-1180.578369140625	-256.0473937988282	751.0576171875001	-1176.749633789063	-207.6620025634766	755.0563354492189	-1164.653564453125	-285.2254028320313	697.8382568359376	-1167.790771484375	-309.4131774902344	528.0889282226564	-1124.174926757813	-281.0113830566407	522.2554931640626	-1002.892150878906	-285.3232116699219	344.4527587890626	-1023.834533691406	-296.0161132812501	295.9464721679688	-1096.196044921875	-280.2161254882813	294.3737792968751	-1050.539184570313	-297.6643371582032	220.3269653320313	-1016.79931640625	-351.9378662109376	125.2450103759766	-1058.898315429688	-330.0691223144532	139.1153259277344	-972.2976074218752	-208.1286773681641	64.3599319458008	-991.0732421875002	-208.9637451171876	60.83485031127931	-1036.281616210938	-259.0736694335938	50.82505798339845	-1079.942016601563	-247.0581054687501	828.0852661132815	-784.2183227539065	-197.5516204833985	782.863952636719	-779.3613281250002	-168.6034240722657	788.4350585937502	-790.2030029296877	-207.7522125244141	699.4566040039064	-770.788024902344	-183.3731536865235	569.2697143554689	-782.1843261718752	-175.2515106201172	537.1434936523439	-909.360778808594	-268.2860107421876	478.9058227539064	-784.7763671875002	-366.0558776855469	518.8750610351564	-755.2078857421876	-350.8034057617188	474.8528137207032	-760.4288330078126	-393.3114013671876	443.6735229492189	-790.3059692382815	-557.8413085937501	461.6333007812501	-762.9125366210939	-586.4038696289064	504.8365173339845	-826.2625122070315	-595.3179321289064	296.8305664062501	-815.4039306640627	-596.9951171875001	296.9349975585938	-769.5691528320315	-633.9355468750001	350.2445983886719	-727.6239624023439	nan	nan	nan	nan	nan	nan	nan	nan	nan	nan	nan	nan	
3	0.01	-170.2798919677735	1743.648315429688	-1096.769775390625	-346.1363830566407	1699.270385742188	-1122.894165039063	-324.4757080078126	1709.149169921875	-975.8957519531252	-359.4703063964844	1522.516967773438	-1049.095703125	-373.8314208984376	1211.847412109375	-1026.167114257813	-206.3408355712891	1471.19677734375	-1076.533447265625	-284.1505126953126	1483.148803710938	-1231.228515625	-216.2121276855469	1326.567016601563	-1323.912109375	-172.838363647461	1351.689208984375	-1322.279052734375	-154.892562866211	1295.124877929688	-1332.083618164063	-82.58186340332033	1280.3369140625	-1335.427978515625	-98.86856842041018	1233.552001953125	-1259.197265625	80.70155334472658	1394.968627929688	-1174.583374023438	118.1864318847657	1329.769165039063	-1165.487670898438	169.8742828369141	1409.284057617188	-1163.243530273438	-242.5579071044922	1503.2646484375	-913.5214843750002	-139.4091796875	1368.6708984375	-815.3856201171877	-101.6412734985352	1391.2041015625	-836.0071411132815	-75.60991668701173	1339.89794921875	-818.9153442382815	-2.106459856033326	1329.848999023438	-836.0815429687502	-28.95232772827149	1259.913818359375	-884.9361572265627	163.0675811767578	1354.869995117188	-1040.573852539063	134.4787139892578	1432.422485351563	-1083.696411132813	-203.2044525146485	983.830505371094	-1120.44189453125	-192.013168334961	1004.656799316406	-890.914733886719	-379.3364257812501	1078.606689453125	-1008.140869140625	-386.7954101562501	1044.772338867188	-1033.104370117188	-382.7899475097657	1050.23046875	-974.927673339844	-290.7429199218751	828.254333496094	-1180.656616210938	-256.1006774902344	751.0744628906251	-1176.816284179688	-207.7688293457032	755.0397338867189	-1164.740356445313	-285.2770080566407	697.8618164062501	-1167.855346679688	-309.5260620117188	528.0913696289064	-1124.173950195313	-281.0530700683594	522.2489013671876	-1002.960510253906	-285.3437194824219	344.4579162597657	-1023.758728027344	-296.1321716308594	295.9387207031251	-1096.211303710938	-280.2016601562501	294.4591674804688	-1050.683471679688	-297.6546936035157	220.3339233398438	-1016.791381835938	-351.9162902832032	125.274772644043	-1058.866088867188	-330.0818481445313	139.1497344970703	-972.2735595703127	-208.0558624267579	64.3490676879883	-991.1072387695315	-208.9637451171876	60.83485031127931	-1036.281616210938	-259.1684265136719	50.80345153808595	-1079.974487304688	-246.5215759277344	828.0579223632815	-785.3183593750002	-197.3976287841797	783.0332031250002	-778.821228027344	-168.1555786132813	788.287048339844	-791.3504638671877	-207.5782928466797	699.4505615234376	-770.9277343750002	-183.3165283203125	568.9882202148439	-781.9852294921877	-175.280029296875	537.1174316406251	-909.4343261718752	-268.2691650390626	478.9478149414064	-784.7974243164065	-365.9685363769532	518.9647216796876	-755.1711425781251	-350.7215881347657	474.8733215332032	-760.3843994140626	-393.287567138672	443.6923217773439	-790.1868286132815	-557.7642822265626	461.7247314453126	-762.7608032226564	-586.3067626953126	505.1968688964845	-826.2410888671877	-595.2913818359376	296.9387817382813	-815.1950683593752	-597.0480346679689	297.0482788085938	-769.371520996094	-633.8823852539064	350.3613281250001	-727.4937744140626	nan	nan	nan	nan	nan	nan	nan	nan	nan	nan	nan	nan	
4	0.015	-170.2832336425782	1743.687866210938	-1096.920166015625	-346.0812683105469	1699.27294921875	-1122.962524414063	-324.4476013183594	1709.203979492188	-975.9633789062502	-359.4251098632813	1522.545166015625	-1049.097290039063	-373.7521057128907	1211.878173828125	-1026.20263671875	-206.1911773681641	1471.211059570313	-1076.606079101563	-284.0938415527344	1483.16455078125	-1231.29931640625	-216.2104797363282	1326.61767578125	-1323.98291015625	-172.9112243652344	1351.729858398438	-1322.348388671875	-154.901107788086	1295.112060546875	-1332.126953125	-82.55992889404298	1280.3681640625	-1335.478759765625	-98.88073730468753	1233.546875	-1259.282470703125	80.67252349853517	1394.981079101563	-1174.598876953125	118.2154312133789	1329.830078125	-1165.601684570313	169.9183959960938	1409.35888671875	-1163.353393554688	-242.5465087890626	1503.278930664063	-913.5585937500002	-139.36083984375	1368.656616210938	-815.3963623046877	-101.5945587158203	1391.216796875	-836.0581665039065	-75.47505187988283	1339.878173828125	-819.0159301757815	-1.991219639778138	1329.827514648438	-836.174011230469	-28.86338615417481	1259.91259765625	-885.022399902344	163.0896453857422	1354.88525390625	-1040.725219726563	134.5587463378907	1432.49755859375	-1083.77685546875	-203.1433715820313	983.8769531250002	-1120.607543945313	-191.8052978515625	1004.719848632813	-891.1071777343752	-379.0492248535157	1078.890747070313	-1008.05126953125	-386.7913513183595	1044.813354492188	-1033.10400390625	-382.7249755859376	1050.262817382813	-974.9468383789065	-290.8052368164063	828.230407714844	-1180.70654296875	-256.1743469238282	751.0991210937501	-1176.890869140625	-207.8048248291016	755.0319824218751	-1164.786743164063	-285.3573303222657	697.8322143554689	-1167.884643554688	-309.6785278320313	528.1292724609376	-1124.122924804688	-281.0270080566407	522.3250122070314	-1003.005065917969	-285.4253234863282	344.4998779296876	-1023.724487304688	-296.2193908691407	295.9591674804688	-1096.255615234375	-280.4777832031251	294.9197387695313	-1050.508178710938	-297.6648254394532	220.3325500488282	-1016.800109863281	-351.9196472167969	125.2626190185547	-1058.902221679688	-330.0569763183594	139.1464996337891	-972.284851074219	-208.1243896484376	64.32410430908205	-991.1119384765627	-208.9855346679688	60.79756546020509	-1036.263671875	-259.0971374511719	50.79034423828126	-1079.909423828125	-246.407455444336	828.088317871094	-785.3758544921877	-197.2645568847657	782.988708496094	-778.9138183593752	-168.0005798339844	788.3693847656252	-791.4805297851565	-207.4133453369141	699.8018798828126	-771.144958496094	-183.0117950439453	569.3197631835939	-782.5062255859377	-175.2639465332032	537.0983276367189	-909.5420532226565	-268.1697387695313	478.945037841797	-784.8862915039065	-365.9066467285157	519.0338134765626	-755.1049804687501	-350.6730957031251	474.9226074218751	-760.2913208007814	-393.2432556152345	443.7483825683595	-790.187194824219	-557.7280883789064	461.8635864257814	-762.5598144531251	-586.2201538085939	505.2999267578126	-826.038024902344	-595.1789550781251	297.0853881835938	-815.029235839844	-596.9754028320314	297.1239013671876	-769.1338500976565	-633.8242797851564	350.5010986328126	-727.2584228515626	nan	nan	nan	nan	nan	nan	nan	nan	nan	nan	nan	nan	
